<?xml version="1.0" encoding="utf-8"?>
<!-- Generator: Adobe Illustrator 27.5.0, SVG Export Plug-In . SVG Version: 6.00 Build 0)  -->
<svg version="1.1" xmlns="http://www.w3.org/2000/svg" xmlns:xlink="http://www.w3.org/1999/xlink" x="0px" y="0px"
	 viewBox="0 0 500 500" style="enable-background:new 0 0 500 500;" xml:space="preserve">
<g id="BACKGROUND">
	<rect style="fill:#FFFFFF;" width="500" height="500"/>
	<linearGradient id="SVGID_1_" gradientUnits="userSpaceOnUse" x1="250" y1="272.3053" x2="250" y2="475.5919">
		<stop  offset="0" style="stop-color:#E4ECF4"/>
		<stop  offset="1" style="stop-color:#E4ECF4;stop-opacity:0"/>
	</linearGradient>
	<rect y="322.084" style="fill:url(#SVGID_1_);" width="500" height="177.916"/>
</g>
<g id="OBJECTS">
	<g>
		
			<linearGradient id="XMLID_00000098919030584654387690000017630366492482212010_" gradientUnits="userSpaceOnUse" x1="250" y1="173.779" x2="250" y2="385.6965" gradientTransform="matrix(-1 0 0 1 500 0)">
			<stop  offset="0" style="stop-color:#E4ECF4"/>
			<stop  offset="1" style="stop-color:#E4ECF4;stop-opacity:0"/>
		</linearGradient>
		<path id="XMLID_74_" style="fill:url(#XMLID_00000098919030584654387690000017630366492482212010_);" d="M3.946,284.339v13.07
			l0.853-0.78c0-2.131,0-3.769,0-3.946c0,0.365,1.49,0.374,3.02,0.288v-26.324h19.582v20.779h1.207v2.254h2.098v-41.973h1.73v-2.488
			h1.484v-9.725h0.591v-2.836l0.55-0.503v-2.7l0.725-0.665v-3.362h1.026v-3.112l1.55-1.418v-2.424l1.45-2.838v-2.745h0.501
			l0.376-14.563v-0.274l0.025,14.837l0.799,1.555v1.921l0.6,0.459v2.104l0.4,0.275v3.295l1,0.182v3.294l0.701,0.55v2.562l0.4,0.458
			v3.112l2.602,2.288v9.968l1.855,1.696v4.352l0.923,0.845v39.607h2.149v-12.499l1.367-0.252v-2.288l1.369-1.465l1.094,0.586v-5.784
			h3.048v-14.097h9.709v17.023h2.121v-17.023h10.818v18.584h0.957v1.951h2.986v2.265h0.192v3.532l3.22-0.141v2.536h1.979v-41.92
			h7.848v27.482h6.043v-32.528h6.471v15.758h7.297v2.341h2.772v3.511v23.691l4.38,4.007h0.401v-33.55h9.333v31.208h1.98v-3.173
			c0,0,0.058,0.001,0.141,0.003v-1.124l1.408-1.028v-55.393h0.914V212.62l1.371-0.14v-3.9l1.828-0.14v-2.228h1.827v-2.229h2.283
			v-13.93c0,0,0.142-2.06,3.074-2.16v-5.502h0.76v5.549c0,0,2.504,0.21,2.411,2.393c-0.085,1.948,0,12.538,0,12.538l0.913,0.139
			v1.253l1.523-0.279v2.508h1.827v1.811h1.676v4.596h1.674v10.867h1.675v66.046l0.829-0.758v-8.638h0.843v-21.041h8.836v-5.313
			h9.139v10.773h7.187v13.4h4.052v-9.499h1.248v-4.432h11.27v27.629h1.622v-7.512l2.19-4.506l2.188,3.756v10.515h1.917v-6.618h2.363
			c0,0,0.342-5.399,0.1-6.175c0.435,0.115,2.188,0.083,3.756,0.026v-10.148h3.197v1.951h2.987v-2.536h4.049v1.755h8.53v-2.34h2.986
			c0,0,0,6.273,0,11.198h3.959l1.462-4.925l1.137,4.925h0.694v-12.173h2.247v-6.077h15.685v30.122l1.035-0.237v-9.515l3.012-16.772
			l3.011,16.772v10.014h1.451v-5.387h2.132v1.95h1.707v1.366h3.624v2.072h2.132v-11.434h4.282v-14.214h11.727v2.9h1.69v6.156h0.811
			v-0.467c0,0,0.807,0.012,2.068,0.026v-1.384h9.276v-8.371h0.773v-9.308h5.941v9.308h3.094v30.371h2.93v-5.838h1.369v-13.017h1.369
			v-5.507l4.378-4.507l2.698,2.116v-84.311h7.31v-0.964h-5.43l-1.315-0.603l-0.109-1.202l1.207-0.794h5.648l0.929-34.001
			l0.877,33.993l5.371,0.1l1.208,0.902v1.002l-1.507,0.638l-4.964-0.036l0.111,1.203l6.361,0.069v87.705
			c1.277-0.425,2.782-0.65,4.487-0.459l-0.144-46.505l11.374-8.524l9.467,8.659v54.128c0.932-0.444,2.069-0.838,3.341-0.994v-59.539
			l12.887,0.146v73.93h2.741l0.397-0.363v-8.023h0.697v-19.119h10.163v25.937c0.784,0.45,1.669,1.289,2.153,2.868l1.633-0.458v3.708
			c0,0,7.79-0.859,11.905,3.771c0.809,0.311,1.629,0.653,2.458,1.067c9.032,4.505,10.128,11.766,10.128,11.766l2.349-4.018
			l-2.078,0.012l-0.546-2.753l2.462,0.026v-2.281l1.75,0.033v-8.607l0.839-2.943l-0.031-4.108h-0.807l0.134-3.729l-0.177-0.864
			h-1.036v-1.805l0.913-4.61l-0.913-1.785v-3.445l-1.075-0.82v-3.115l1.881-7.84v-2.164H439.7l-0.007-2.147l-0.915-0.464v-1.858
			l0.61-0.743h0.61l-0.153-0.411l-0.61-0.658v-1.737l3.513-4.209v1.208l-0.871,1.673l0.609,0.649l0.051,0.679l0.558,0.807v1.395
			l-1.674,0.193l0.15,0.503l1.524,0.092l0.508,0.605v1.719l-2.081,0.046l-0.026,0.307l1.141,1.458l0.175,6.176l0.435,0.213v1.693
			l1.828,0.231l-0.86-2.276l1.725,1.301l0.813,0.047l1.219-2.276l0.253,2.416l2.895-1.348l-1.778,1.905l3.097,0.093l-2.385,1.301
			l2.385,0.649l-2.589,0.325l-0.151,2.185l-1.424,1.439l1.758,2.153h2.438l2.74,4.863l2.489-1.859c0,0,2.539,2.972,2.692,2.972
			c0.154,0-4.317,4.785-4.317,4.785l0.965,8.547l-1.22,0.324l-0.304,1.162l-1.32,0.418l-0.05,0.93l-1.948-0.037l-0.133,1.383
			l3.502,0.743l0.104,1.394l1.318,0.091v5.044l2.097,0.04l-0.032,1.996l2.22-0.075v2.503l-2.22-0.046c0,0,3.909,1.212,6.054,5.266
			v-16.574v-8.424h12.833v11.91h3.305v-23.123h13.008v16.914h2.772v-13.6H500v38.907l-33.517,0.02c0,0.006,0.001,0.011,0.001,0.017
			L0,323.246v-38.907H3.946z"/>
		<g>
			<path style="fill:#FFC299;" d="M254.866,209.006c0,0,4.324,11.232,8.415,12.508c4.091,1.277,43.376,1.277,43.376,1.277v10.233
				c0,0-41.638,1.364-48.534,0c-6.896-1.364-19.735-19.32-19.735-19.32L254.866,209.006z"/>
			<g>
				<g>
					<g>
						<path style="fill:#1D2C49;" d="M306.989,221.443c-0.382,0-0.741-0.233-0.885-0.611l-9.46-24.938
							c-0.185-0.488,0.061-1.035,0.549-1.22c0.488-0.187,1.035,0.061,1.221,0.549l9.46,24.938c0.186,0.488-0.061,1.035-0.549,1.22
							C307.215,221.423,307.101,221.443,306.989,221.443z"/>
					</g>
					<g>
						<path style="fill:#0E1A2D;" d="M232.364,345.313h85.861c0,0-10.777,19.28-45.833,19.28
							C237.336,364.593,232.364,345.313,232.364,345.313z"/>
						
							<linearGradient id="SVGID_00000093889421172667763480000009620125357814407352_" gradientUnits="userSpaceOnUse" x1="269.6713" y1="360.4738" x2="269.6713" y2="590.4937">
							<stop  offset="0" style="stop-color:#E4ECF4"/>
							<stop  offset="1" style="stop-color:#E4ECF4;stop-opacity:0"/>
						</linearGradient>
						
							<ellipse style="fill:url(#SVGID_00000093889421172667763480000009620125357814407352_);" cx="269.671" cy="404.025" rx="140.571" ry="8.748"/>
						<path style="fill:#0E1A2D;" d="M304.001,257.226c6.576,29.969,9.116,88.087-21.072,88.087
							c-30.188,0,2.539,12.051,2.539,12.051s20.878,2.908,28.213-2.411c7.335-5.319,14.106-44.659,13.26-53.105
							c-0.846-8.446-13.542-41.864-16.081-44.622C308.32,254.468,304.001,257.226,304.001,257.226z"/>
						<rect x="301.521" y="239.7" style="fill:#CC2525;" width="10.938" height="7.861"/>
						<circle style="fill:#0E1A2D;" cx="190.245" cy="371.203" r="34.722"/>
						
							<ellipse transform="matrix(0.256 -0.9667 0.9667 0.256 -217.2886 460.0916)" style="fill:#1D2C49;" cx="190.245" cy="371.203" rx="20.732" ry="20.732"/>
						
							<linearGradient id="SVGID_00000013152835175372945730000004960462527791560123_" gradientUnits="userSpaceOnUse" x1="190.2452" y1="467.842" x2="190.2452" y2="343.4176">
							<stop  offset="0" style="stop-color:#E4ECF4"/>
							<stop  offset="1" style="stop-color:#E4ECF4;stop-opacity:0"/>
						</linearGradient>
						
							<circle style="fill:url(#SVGID_00000013152835175372945730000004960462527791560123_);" cx="190.245" cy="371.203" r="18.618"/>
						
							<linearGradient id="SVGID_00000173121664649701855540000003564296533098605445_" gradientUnits="userSpaceOnUse" x1="190.2452" y1="376.1368" x2="190.2452" y2="418.6616">
							<stop  offset="0" style="stop-color:#E4ECF4"/>
							<stop  offset="1" style="stop-color:#E4ECF4;stop-opacity:0"/>
						</linearGradient>
						
							<circle style="fill:url(#SVGID_00000173121664649701855540000003564296533098605445_);" cx="190.245" cy="371.203" r="11.503"/>
						<circle style="fill:#0E1A2D;" cx="190.245" cy="371.203" r="2.802"/>
						<circle style="fill:#0E1A2D;" cx="356.837" cy="371.203" r="34.722"/>
						
							<ellipse transform="matrix(0.2318 -0.9728 0.9728 0.2318 -86.9727 632.2725)" style="fill:#1D2C49;" cx="356.837" cy="371.203" rx="20.732" ry="20.732"/>
						
							<linearGradient id="SVGID_00000095329576125783360670000018429517391286992817_" gradientUnits="userSpaceOnUse" x1="356.8373" y1="467.842" x2="356.8373" y2="343.4176">
							<stop  offset="0" style="stop-color:#E4ECF4"/>
							<stop  offset="1" style="stop-color:#E4ECF4;stop-opacity:0"/>
						</linearGradient>
						
							<circle style="fill:url(#SVGID_00000095329576125783360670000018429517391286992817_);" cx="356.837" cy="371.203" r="18.619"/>
						
							<linearGradient id="SVGID_00000181083888797345731350000000543761134225667767_" gradientUnits="userSpaceOnUse" x1="356.8374" y1="376.1368" x2="356.8374" y2="418.6616">
							<stop  offset="0" style="stop-color:#E4ECF4"/>
							<stop  offset="1" style="stop-color:#E4ECF4;stop-opacity:0"/>
						</linearGradient>
						
							<circle style="fill:url(#SVGID_00000181083888797345731350000000543761134225667767_);" cx="356.837" cy="371.203" r="11.503"/>
						<path style="fill:#0457AA;" d="M177.736,317.454c0,2.519-2.042,4.56-4.561,4.56c-2.519,0-4.56-2.042-4.56-4.56
							c0-2.519,2.042-4.56,4.56-4.56C175.695,312.894,177.736,314.936,177.736,317.454z"/>
						<path style="fill:#FF3E3E;" d="M255.818,291.803H206.34c-39.422,0-71.38,31.958-71.38,71.38v8.02c0,0,105.483,0,144.845,0
							s34.345-1.159,42.256-17.946c7.911-16.787,21.611-21.754,37.24-21.754c0,0-4.052-28.606-10.419-34.588
							c-6.367-5.981-17.366-13.121-24.698-33.381c-6.847-18.92-10.014-17.142-22.151-16.825c-1.267,0.033-2.108,1.334-1.581,2.487
							c3.651,7.988,15.008,33.77,17.751,51.191c3.28,20.839-5.21,53.833-24.505,56.342c-19.295,2.508-56.535,2.315-60.394-14.471
							C229.446,325.472,255.818,291.803,255.818,291.803z"/>
						<g>
							<path style="fill:#CC2525;" d="M190.245,323.839c-26.158,0-47.364,21.205-47.364,47.364h94.727
								C237.609,345.045,216.403,323.839,190.245,323.839z"/>
						</g>
						<path style="fill:#FF3E3E;" d="M209.761,341.425H170.73c-0.672,0-1.217-0.545-1.217-1.217v-0.225
							c0-0.672,0.545-1.217,1.217-1.217h39.031c0.672,0,1.217,0.545,1.217,1.217v0.225
							C210.977,340.881,210.433,341.425,209.761,341.425z"/>
						<path style="fill:#FF3E3E;" d="M209.761,347.971H170.73c-0.672,0-1.217-0.545-1.217-1.217v-0.225
							c0-0.672,0.545-1.217,1.217-1.217h39.031c0.672,0,1.217,0.545,1.217,1.217v0.225
							C210.977,347.427,210.433,347.971,209.761,347.971z"/>
						<path style="fill:#FF3E3E;" d="M209.761,354.517H170.73c-0.672,0-1.217-0.545-1.217-1.217v-0.225
							c0-0.672,0.545-1.217,1.217-1.217h39.031c0.672,0,1.217,0.545,1.217,1.217v0.225
							C210.977,353.973,210.433,354.517,209.761,354.517z"/>
						<path style="fill:#FF3E3E;" d="M209.761,361.064H170.73c-0.672,0-1.217-0.545-1.217-1.217v-0.225
							c0-0.672,0.545-1.217,1.217-1.217h39.031c0.672,0,1.217,0.545,1.217,1.217v0.225
							C210.977,360.519,210.433,361.064,209.761,361.064z"/>
						<path style="fill:#FFD671;" d="M343.952,301.859h-0.621v18.194h7.336v-11.479
							C350.667,304.866,347.661,301.859,343.952,301.859z"/>
						<path style="fill:#FF3E3E;" d="M324.871,217.849h-28.52c-3.556,0-6.44,2.883-6.44,6.439v11.164
							c0,3.556,2.883,6.439,6.44,6.439h28.52V217.849z"/>
						<path style="fill:#FFD671;" d="M325.781,241.892h-0.91v-24.043h0.91c5.433,0,9.837,4.404,9.837,9.837v4.369
							C335.618,237.488,331.214,241.892,325.781,241.892z"/>
						<g>
							<path style="fill:#1D2C49;" d="M356.838,372.623c-0.539,0-1.055-0.308-1.293-0.831l-12.616-27.679
								c-0.325-0.714-0.01-1.556,0.703-1.881c0.711-0.325,1.556-0.011,1.881,0.703l12.616,27.679
								c0.325,0.714,0.01,1.556-0.703,1.881C357.234,372.582,357.035,372.623,356.838,372.623z"/>
						</g>
						<g>
							<path style="fill:#CC2525;" d="M345.852,345.049h43.594c-7.663-9.541-19.419-15.655-32.608-15.655
								c-15.853,0-29.644,8.824-36.733,21.828h16.001L345.852,345.049z"/>
						</g>
						<path style="fill:#0E1A2D;" d="M359.302,371.203c0,1.361-1.104,2.465-2.465,2.465c-1.361,0-2.465-1.104-2.465-2.465
							s1.103-2.465,2.465-2.465C358.199,368.738,359.302,369.842,359.302,371.203z"/>
						<path style="fill:#CC2525;" d="M178.817,317.454c0,3.116-2.526,5.641-5.642,5.641c-3.116,0-5.641-2.526-5.641-5.641
							s2.526-5.642,5.641-5.642C176.292,311.813,178.817,314.339,178.817,317.454z"/>
						<path style="fill:#FF3E3E;" d="M176.019,317.454c0,1.57-1.273,2.843-2.843,2.843c-1.57,0-2.843-1.273-2.843-2.843
							c0-1.57,1.273-2.843,2.843-2.843C174.746,314.611,176.019,315.884,176.019,317.454z"/>
						<g>
							<path style="fill:#1D2C49;" d="M284.629,242.429c-1.52,0-2.954-0.922-3.533-2.425c-0.752-1.951,0.22-4.142,2.171-4.894
								l22.763-8.771c1.952-0.752,4.143,0.221,4.894,2.171c0.752,1.951-0.22,4.142-2.171,4.894l-22.763,8.771
								C285.542,242.347,285.081,242.429,284.629,242.429z"/>
						</g>
						<g>
							<path style="fill:#1D2C49;" d="M173.175,318.874c-0.311,0-0.624-0.102-0.886-0.311l-32.027-25.621
								c-0.612-0.489-0.711-1.383-0.222-1.995c0.489-0.612,1.383-0.714,1.995-0.222l32.027,25.621
								c0.612,0.489,0.711,1.383,0.222,1.995C174.004,318.691,173.591,318.874,173.175,318.874z"/>
						</g>
						<path style="fill:#8E4720;" d="M252.438,297.767H131.935c-3.423,0-6.198-2.775-6.198-6.198v-2.162
							c0-3.423,2.775-6.198,6.198-6.198h120.503c3.423,0,6.198,2.775,6.198,6.198v2.162
							C258.636,294.992,255.861,297.767,252.438,297.767z"/>
						<path style="fill:#CC2525;" d="M229.426,303.177h-39.031c-0.672,0-1.217-0.545-1.217-1.217v-0.225
							c0-0.672,0.545-1.217,1.217-1.217h39.031c0.672,0,1.217,0.545,1.217,1.217v0.225
							C230.643,302.632,230.098,303.177,229.426,303.177z"/>
						<path style="fill:#CC2525;" d="M229.426,308.862h-39.031c-0.672,0-1.217-0.545-1.217-1.217v-0.225
							c0-0.672,0.545-1.217,1.217-1.217h39.031c0.672,0,1.217,0.545,1.217,1.217v0.225
							C230.643,308.318,230.098,308.862,229.426,308.862z"/>
						<path style="fill:#CC2525;" d="M229.426,314.548h-39.031c-0.672,0-1.217-0.545-1.217-1.217v-0.225
							c0-0.672,0.545-1.217,1.217-1.217h39.031c0.672,0,1.217,0.545,1.217,1.217v0.225
							C230.643,314.003,230.098,314.548,229.426,314.548z"/>
					</g>
					<g>
						<ellipse style="fill:#CC2525;" cx="299.622" cy="195.559" rx="7.816" ry="13.361"/>
						<ellipse style="fill:#B6F0FF;" cx="297.53" cy="195.559" rx="7.816" ry="13.361"/>
					</g>
					<g>
						<path style="fill:#1D2C49;" d="M317.043,222.213c-0.066,0-0.132-0.007-0.198-0.021c-0.512-0.109-0.837-0.612-0.729-1.123
							l5.724-26.831c0.109-0.512,0.612-0.84,1.123-0.729c0.512,0.109,0.837,0.612,0.728,1.123l-5.724,26.831
							C317.873,221.908,317.479,222.213,317.043,222.213z"/>
					</g>
					<g>
						<ellipse style="fill:#CC2525;" cx="324.858" cy="195.559" rx="7.816" ry="13.361"/>
						<ellipse style="fill:#B6F0FF;" cx="322.765" cy="195.559" rx="7.816" ry="13.361"/>
					</g>
					<g>
						
							<linearGradient id="SVGID_00000167394674707269265730000013379967419018280885_" gradientUnits="userSpaceOnUse" x1="136.4113" y1="348.2829" x2="145.97" y2="348.2829">
							<stop  offset="0" style="stop-color:#E4ECF4"/>
							<stop  offset="1" style="stop-color:#E4ECF4;stop-opacity:0"/>
						</linearGradient>
						<path style="fill:url(#SVGID_00000167394674707269265730000013379967419018280885_);" d="M137.492,367.084
							c-0.433-5.645,0.021-11.309,1.135-16.856c1.475-7.343,4.306-13.922,7.32-20.727c0.112-0.252-0.207-0.442-0.37-0.216
							c-4.35,6.008-6.726,13.823-8.049,21.039c-1.006,5.486-1.584,11.306-0.632,16.841
							C136.954,367.499,137.518,367.425,137.492,367.084L137.492,367.084z"/>
					</g>
					<g>
						
							<linearGradient id="SVGID_00000038378431499641162390000009066404585704077206_" gradientUnits="userSpaceOnUse" x1="150.3435" y1="316.7286" x2="160.7887" y2="316.7286">
							<stop  offset="0" style="stop-color:#E4ECF4"/>
							<stop  offset="1" style="stop-color:#E4ECF4;stop-opacity:0"/>
						</linearGradient>
						<path style="fill:url(#SVGID_00000038378431499641162390000009066404585704077206_);" d="M150.711,322.227
							c1.573-2.052,2.902-4.224,4.7-6.109c1.636-1.715,3.492-3.146,5.316-4.648c0.17-0.14-0.047-0.397-0.229-0.296
							c-4.105,2.279-8.297,6.538-10.139,10.905C150.267,322.298,150.592,322.382,150.711,322.227L150.711,322.227z"/>
					</g>
					<g>
						
							<linearGradient id="SVGID_00000060006671493374666240000012704791792960517014_" gradientUnits="userSpaceOnUse" x1="173.3152" y1="300.7776" x2="177.8067" y2="300.7776">
							<stop  offset="0" style="stop-color:#E4ECF4"/>
							<stop  offset="1" style="stop-color:#E4ECF4;stop-opacity:0"/>
						</linearGradient>
						<path style="fill:url(#SVGID_00000060006671493374666240000012704791792960517014_);" d="M173.644,302.284
							c0.721-0.32,1.364-0.899,2.021-1.336c0.673-0.448,1.407-0.83,2.051-1.317c0.177-0.134,0.082-0.427-0.157-0.372
							c-1.44,0.337-3.403,1.46-4.208,2.732C173.224,302.189,173.464,302.364,173.644,302.284L173.644,302.284z"/>
					</g>
					<g>
						
							<linearGradient id="SVGID_00000025426099211933466940000013414675608442149521_" gradientUnits="userSpaceOnUse" x1="313.3104" y1="251.6691" x2="318.334" y2="251.6691">
							<stop  offset="0" style="stop-color:#E4ECF4"/>
							<stop  offset="1" style="stop-color:#E4ECF4;stop-opacity:0"/>
						</linearGradient>
						<path style="fill:url(#SVGID_00000025426099211933466940000013414675608442149521_);" d="M313.372,249.166
							c0.83,0.75,1.76,1.368,2.51,2.207c0.792,0.886,1.414,1.945,1.936,3.008c0.141,0.287,0.586,0.084,0.507-0.214
							c-0.597-2.238-2.418-4.721-4.755-5.341C313.381,248.776,313.217,249.026,313.372,249.166L313.372,249.166z"/>
					</g>
					<g>
						
							<linearGradient id="SVGID_00000039120688500118068400000009124443266290181294_" gradientUnits="userSpaceOnUse" x1="291.5126" y1="221.8696" x2="295.2155" y2="221.8696">
							<stop  offset="0" style="stop-color:#E4ECF4"/>
							<stop  offset="1" style="stop-color:#E4ECF4;stop-opacity:0"/>
						</linearGradient>
						<path style="fill:url(#SVGID_00000039120688500118068400000009124443266290181294_);" d="M294.91,219.04
							c-1.929,0.623-3.746,3.428-3.339,5.459c0.048,0.242,0.423,0.289,0.534,0.07c0.46-0.911,0.648-1.917,1.181-2.81
							c0.526-0.881,1.275-1.563,1.892-2.371C295.304,219.221,295.094,218.98,294.91,219.04L294.91,219.04z"/>
					</g>
					<g>
						
							<linearGradient id="SVGID_00000012464569756596882540000001667406585182592157_" gradientUnits="userSpaceOnUse" x1="310.5657" y1="362.3664" x2="316.8753" y2="362.3664">
							<stop  offset="0" style="stop-color:#E4ECF4"/>
							<stop  offset="1" style="stop-color:#E4ECF4;stop-opacity:0"/>
						</linearGradient>
						<path style="fill:url(#SVGID_00000012464569756596882540000001667406585182592157_);" d="M316.258,358.984
							c-0.519,1.401-1.166,2.718-2.177,3.834c-0.978,1.079-2.16,1.675-3.347,2.457c-0.277,0.182-0.206,0.731,0.187,0.689
							c3.194-0.345,5.823-3.836,5.955-6.896C316.891,358.693,316.374,358.67,316.258,358.984L316.258,358.984z"/>
					</g>
					<g>
						
							<linearGradient id="SVGID_00000102504474659543041470000000344609693105708446_" gradientUnits="userSpaceOnUse" x1="357.655" y1="334.6003" x2="380.2185" y2="334.6003">
							<stop  offset="0" style="stop-color:#E4ECF4"/>
							<stop  offset="1" style="stop-color:#E4ECF4;stop-opacity:0"/>
						</linearGradient>
						<path style="fill:url(#SVGID_00000102504474659543041470000000344609693105708446_);" d="M357.806,330.922
							c3.729,0.758,7.468,0.868,11.141,2.021c4.009,1.258,7.709,3.032,10.847,5.846c0.205,0.184,0.534-0.048,0.389-0.3
							c-1.886-3.278-6.351-4.837-9.744-6.021c-3.835-1.337-8.547-2.59-12.633-1.953C357.6,330.548,357.609,330.882,357.806,330.922
							L357.806,330.922z"/>
					</g>
					<g>
						
							<linearGradient id="SVGID_00000040539020177734720890000003310742134501330827_" gradientUnits="userSpaceOnUse" x1="348.2514" y1="301.4581" x2="351.7935" y2="301.4581">
							<stop  offset="0" style="stop-color:#E4ECF4"/>
							<stop  offset="1" style="stop-color:#E4ECF4;stop-opacity:0"/>
						</linearGradient>
						<path style="fill:url(#SVGID_00000040539020177734720890000003310742134501330827_);" d="M348.262,298.146
							c1.296,2.177,2.398,4.374,3.407,6.698c0.026,0.059,0.132,0.031,0.124-0.034c-0.33-2.545-1.575-4.973-3.421-6.749
							C348.315,298.006,348.22,298.076,348.262,298.146L348.262,298.146z"/>
					</g>
					<g>
						
							<linearGradient id="SVGID_00000090260263232992890040000005085505656413646473_" gradientUnits="userSpaceOnUse" x1="346.5862" y1="307.2723" x2="349.4035" y2="307.2723">
							<stop  offset="0" style="stop-color:#E4ECF4"/>
							<stop  offset="1" style="stop-color:#E4ECF4;stop-opacity:0"/>
						</linearGradient>
						<path style="fill:url(#SVGID_00000090260263232992890040000005085505656413646473_);" d="M346.643,305.537
							c0.468,0.606,0.988,1.117,1.365,1.798c0.369,0.667,0.464,1.403,0.782,2.083c0.104,0.223,0.401,0.124,0.473-0.062
							c0.59-1.532-0.768-3.79-2.219-4.341C346.769,304.911,346.456,305.295,346.643,305.537L346.643,305.537z"/>
					</g>
					<g>
						
							<linearGradient id="SVGID_00000168838035899553351770000012078527593126751375_" gradientUnits="userSpaceOnUse" x1="292.3454" y1="188.6928" x2="297.7207" y2="188.6928">
							<stop  offset="0" style="stop-color:#E4ECF4"/>
							<stop  offset="1" style="stop-color:#E4ECF4;stop-opacity:0"/>
						</linearGradient>
						<path style="fill:url(#SVGID_00000168838035899553351770000012078527593126751375_);" d="M297.65,184.265
							c-1.41-0.621-2.939,0.854-3.637,1.966c-1.196,1.905-1.794,4.55-1.645,6.779c0.02,0.304,0.419,0.355,0.523,0.071
							c0.614-1.689,0.921-3.484,1.603-5.152c0.364-0.89,0.818-1.67,1.57-2.289c0.538-0.443,1.164-0.614,1.616-1.143
							C297.735,184.433,297.743,184.306,297.65,184.265L297.65,184.265z"/>
					</g>
					<g>
						
							<linearGradient id="SVGID_00000039092117300078860020000001491180204461974697_" gradientUnits="userSpaceOnUse" x1="323.2673" y1="197.7834" x2="328.2621" y2="197.7834">
							<stop  offset="0" style="stop-color:#E4ECF4"/>
							<stop  offset="1" style="stop-color:#E4ECF4;stop-opacity:0"/>
						</linearGradient>
						<path style="fill:url(#SVGID_00000039092117300078860020000001491180204461974697_);" d="M327.421,192.97
							c-0.187,2.005-0.524,3.771-1.519,5.54c-0.771,1.371-1.849,2.548-2.6,3.922c-0.135,0.247,0.15,0.587,0.41,0.41
							c2.935-1.999,5.354-6.387,4.298-9.951C327.909,192.552,327.452,192.642,327.421,192.97L327.421,192.97z"/>
					</g>
					<g>
						
							<linearGradient id="SVGID_00000004533365855241795490000012619696832782607793_" gradientUnits="userSpaceOnUse" x1="315.7101" y1="193.3864" x2="318.4496" y2="193.3864">
							<stop  offset="0" style="stop-color:#E4ECF4"/>
							<stop  offset="1" style="stop-color:#E4ECF4;stop-opacity:0"/>
						</linearGradient>
						<path style="fill:url(#SVGID_00000004533365855241795490000012619696832782607793_);" d="M318.065,188.745
							c-2.695,1.762-2.594,6.32-2.034,9.069c0.082,0.403,0.645,0.272,0.675-0.091c0.142-1.672-0.02-3.363,0.301-5.023
							c0.257-1.326,0.916-2.44,1.427-3.671C318.519,188.824,318.237,188.632,318.065,188.745L318.065,188.745z"/>
					</g>
					<g>
						
							<linearGradient id="SVGID_00000043438561913871787780000007554490669003486340_" gradientUnits="userSpaceOnUse" x1="299.0038" y1="201.6099" x2="302.7791" y2="201.6099">
							<stop  offset="0" style="stop-color:#E4ECF4"/>
							<stop  offset="1" style="stop-color:#E4ECF4;stop-opacity:0"/>
						</linearGradient>
						<path style="fill:url(#SVGID_00000043438561913871787780000007554490669003486340_);" d="M302.198,199.298
							c-0.35,0.873-0.74,1.733-1.308,2.489c-0.528,0.704-1.217,1.264-1.817,1.904c-0.171,0.183-0.003,0.496,0.248,0.426
							c1.965-0.542,3.347-2.79,3.457-4.74C302.799,199.017,302.312,199.011,302.198,199.298L302.198,199.298z"/>
					</g>
				</g>
				<g>
					<rect x="114.624" y="225.258" style="fill:#8E4720;" width="73.957" height="57.966"/>
					<rect x="138.722" y="225.258" style="fill:#9E5A2D;" width="49.859" height="57.966"/>
					<rect x="160.593" y="225.258" style="fill:#E2BE91;" width="6.118" height="57.966"/>
					<rect x="122.982" y="225.258" style="fill:#C69F75;" width="6.118" height="57.966"/>
					
						<rect x="160.593" y="229.311" transform="matrix(-1.836970e-16 1 -1 -1.836970e-16 417.8928 90.5889)" style="fill:#E2BE91;" width="6.119" height="49.859"/>
					
						<rect x="123.614" y="242.192" transform="matrix(-1.836970e-16 1 -1 -1.836970e-16 380.9142 127.5675)" style="fill:#C69F75;" width="6.119" height="24.098"/>
				</g>
				<g>
					<rect x="114.624" y="167.292" style="fill:#9E5A2D;" width="73.957" height="57.966"/>
					<rect x="138.722" y="167.292" style="fill:#AD6D42;" width="49.859" height="57.966"/>
					<rect x="160.593" y="167.292" style="fill:#E2BE91;" width="6.118" height="57.966"/>
					<rect x="122.982" y="167.292" style="fill:#C69F75;" width="6.118" height="57.966"/>
					
						<rect x="160.593" y="171.345" transform="matrix(-1.836970e-16 1 -1 -1.836970e-16 359.9266 32.6227)" style="fill:#E2BE91;" width="6.119" height="49.859"/>
					
						<rect x="123.614" y="184.226" transform="matrix(-1.836970e-16 1 -1 -1.836970e-16 322.948 69.6013)" style="fill:#C69F75;" width="6.119" height="24.098"/>
				</g>
				<g>
					<g>
						<path style="fill:#1D2C49;" d="M134.961,292.542c-0.784,0-1.419-0.636-1.419-1.42V145.327c0-0.784,0.635-1.42,1.419-1.42
							c0.784,0,1.419,0.635,1.419,1.42v145.795C136.38,291.906,135.745,292.542,134.961,292.542z"/>
					</g>
					<path style="fill:#FF6840;" d="M136.584,177.126v-31.8l-45.875,13.475c-2.42,0.711-2.42,4.139,0,4.85L136.584,177.126z"/>
					<path style="fill:#E8391C;" d="M133.257,177.126h3.133c0.551,0,0.998-0.447,0.998-0.998v-29.804
						c0-0.551-0.447-0.998-0.998-0.998h-3.133c-0.551,0-0.998,0.447-0.998,0.998v29.804
						C132.259,176.68,132.706,177.126,133.257,177.126z"/>
				</g>
			</g>
			<path style="fill:#1D2C49;" d="M192.112,129.971c0.036,6.438,10.185,18.795,17.742,19.634l0.771-5.566l-3.328-12.451
				l-4.857-2.663c0,0-2.113-4.48-2.172-4.327c-0.059,0.153-6.249,2.384-6.249,2.384L192.112,129.971z"/>
			<path style="fill:#1D2C49;" d="M273.349,328.73l3.841,23.951l30.768-11.088c0,0-0.969-6.815-7.309-7.752
				c-6.34-0.936-12.804,4.416-15.176-7.012L273.349,328.73z"/>
			<path style="fill:#0E1A2D;" d="M277.19,352.681l0.054,0.476c0.111,0.982,1.109,1.603,2.038,1.268l28.094-10.111
				c0.865-0.311,1.269-1.303,0.868-2.13l-0.286-0.591L277.19,352.681z"/>
			<path style="fill:#FF6840;" d="M248.779,180.285c6.495,11.242,9.345,32.377,9.345,32.377s-8.245,6.588-24.084,1.584l8.977-33.961
				H248.779z"/>
			<g>
				<path style="fill:#F2986B;" d="M246.508,206.803c-0.354,0.163-0.563,0.542-0.82,0.824c-0.264,0.289-0.515,0.51-0.652,0.884
					c-0.096,0.261,0.192,0.503,0.437,0.437c0.437-0.118,0.707-0.443,0.993-0.778c0.276-0.324,0.55-0.617,0.594-1.051
					C247.089,206.816,246.732,206.7,246.508,206.803L246.508,206.803z"/>
			</g>
			<path style="fill:#FF6840;" d="M242.645,190.763l8.024-4.206c1.011,12.674-3.371,43.432-3.984,61.427
				c-0.08,2.347-0.219,4.745-0.27,6.964c-0.009,0.402,0.021,1.517-0.25,1.815c-11.304,12.447-39.934,3.919-45.812,2.122
				c-0.666-0.203-1.137-0.797-1.188-1.491l-0.288-3.861l-1.224-9.016l-8.098-56.683L242.645,190.763z"/>
			<path id="XMLID_60_" style="fill:#FF6840;" d="M212.636,164.828c1.652-1.203,6.139-2.324,6.718-2.069
				c0.57-0.277,4.694,0.637,6.391,1.775c10.33,6.922,24.924,11.14,24.924,22.023c0,2.864-1.117,7.767-6.471,7.871l-24.215,0.53
				l-24.713,0.53c-5.355,0.105-5.715-7.654-5.715-7.654C189.355,177.001,202.584,172.148,212.636,164.828z"/>
			<g>
				<path style="fill:#E8391C;" d="M218.422,205.385c0.061,0,0.061-0.095,0-0.095C218.361,205.29,218.361,205.385,218.422,205.385
					L218.422,205.385z"/>
			</g>
			<g>
				<path style="fill:#E8391C;" d="M248.96,219.78c0.791-2.318,0.718-5.012,0.807-7.436c0.109-2.972,0.101-5.946-0.009-8.918
					c-0.206-5.533-0.369-11.657-2.187-16.944c-0.12-0.35-0.593-0.203-0.542,0.149c0.834,5.748,1.803,11.367,2.02,17.193
					c0.105,2.838,0.12,5.681,0.041,8.52c-0.068,2.436-0.487,4.999-0.222,7.423C248.873,219.82,248.942,219.833,248.96,219.78
					L248.96,219.78z"/>
			</g>
			<g>
				<path style="fill:#E8391C;" d="M205.646,214.306c-1.345,3.055-1.988,6.148-1.752,9.489c0.021,0.299,0.348,0.431,0.573,0.237
					c0.813-0.699,1.539-1.53,2.368-2.204c0.808-0.657,0.622-0.804,0.462,0.553c-0.262,2.229-0.53,4.454-0.747,6.688
					c-0.461,4.749-1.116,9.56-1.182,14.332c-0.005,0.348,0.564,0.446,0.624,0.085c1.267-7.523,1.652-15.4,2.004-23.016
					c0.009-0.192-0.26-0.31-0.39-0.162c-1.067,1.215-2.225,2.259-3.546,3.196c0.168,0.097,0.337,0.193,0.505,0.29
					c-0.197-3.235,0.2-6.335,1.391-9.357C206.027,214.259,205.724,214.13,205.646,214.306L205.646,214.306z"/>
			</g>
			<g>
				<path style="fill:#E8391C;" d="M244.494,244.553c0.136,2.521,0.277,5.218-0.373,7.686c-0.298,1.133-0.903,2.021-1.36,3.07
					c-0.124,0.283,0.219,0.628,0.465,0.358c2.65-2.91,2.291-7.516,2.03-11.114C245.221,244.069,244.468,244.061,244.494,244.553
					L244.494,244.553z"/>
			</g>
			<path id="XMLID_59_" style="fill:#FFC299;" d="M214.038,168.855c0.495,5.031,14.257,8.508,13.882,0.402l-1.41-16.174
				l-12.973-0.688C214.64,159.389,214.974,165.32,214.038,168.855z"/>
			<path style="fill:#FFC299;" d="M237.08,149.694l-2.848-26.921c-0.259-1.515-1.71-2.543-3.226-2.284l-7.162,1.224
				c-1.789-2.07-4.158-3.358-6.708-2.922l-10.063,1.72c-4.102,0.701-7.049,5.872-5.544,10.172l9.746,24.967
				c1.483,4.236,6.725,9.134,16.979,7.646c0.196-0.025,0.39-0.035,0.588-0.069l0.273-0.023
				C235.038,162.193,238.092,155.617,237.08,149.694z"/>
			<g>
				<path style="fill:#F2986B;" d="M224.369,137.536c0.271,2.519,1.301,6.287,3.395,7.959c0.836,0.667,4.489,1.955,2.336,3.143
					c-1.003,0.553-2.645,0.349-3.776,0.476c-0.493,0.055-0.686,0.793-0.126,0.93c1.626,0.398,5.912,0.146,5.714-2.249
					c-0.128-1.557-1.406-1.844-2.605-2.482c-3-1.596-3.153-5.181-4.849-7.8C224.434,137.477,224.364,137.486,224.369,137.536
					L224.369,137.536z"/>
			</g>
			<g>
				<path style="fill:#F2986B;" d="M225.14,163.482c-1.783-0.544-3.698-0.31-5.518-0.948c-1.776-0.622-3.271-1.842-5.047-2.391
					c-0.125-0.039-0.24,0.111-0.171,0.223c1.668,2.683,7.838,4.552,10.737,3.338C225.24,163.662,225.257,163.518,225.14,163.482
					L225.14,163.482z"/>
			</g>
			<g>
				<path style="fill:#1D2C49;" d="M220.229,134.836c-2.498-2.396-7.309,0.994-7.562,3.883c-0.022,0.246,0.282,0.302,0.435,0.18
					c1.031-0.812,1.621-2.042,2.719-2.818c1.36-0.961,2.738-0.941,4.316-1.025C220.245,135.051,220.314,134.917,220.229,134.836
					L220.229,134.836z"/>
			</g>
			<g>
				<path style="fill:#1D2C49;" d="M226.663,133.42c1.222-0.601,2.259-1.252,3.679-1.251c1.588,0.002,2.833,0.907,4.336,1.172
					c0.194,0.034,0.432-0.176,0.288-0.375c-1.668-2.314-7.466-3.062-8.493,0.307C226.437,133.389,226.566,133.467,226.663,133.42
					L226.663,133.42z"/>
			</g>
			<g>
				<path style="fill:#E8391C;" d="M243.809,218.273c0.353,0.773,1.313,2.344,0.891,3.237c-0.556,1.177,0.124-0.218-0.779,0.642
					c-0.643,0.613-0.871,0.802-1.046,1.742c-0.534,2.863,0.83,6.937,1.887,9.515c0.142,0.346,0.649,0.224,0.57-0.157
					c-0.354-1.724-0.948-3.388-1.307-5.112c-0.207-0.99-0.703-2.36-0.463-3.37c0.135-1.373,0.663-2.111,1.583-2.214
					c0.095-0.034,0.179-0.086,0.253-0.158c0.089-0.331,0.234-0.293,0.312-0.754c0.148-0.868-1.032-2.881-1.411-3.659
					C244.14,217.654,243.659,217.944,243.809,218.273L243.809,218.273z"/>
			</g>
			<g>
				<path style="fill:#1D2C49;" d="M203.567,138.719c-0.754-0.761-1.116,4.656-1.95,4.421c-0.834-0.234-1.487-0.868-2.095-1.484
					c-1.042-1.056-2.079-2.155-2.738-3.483c-0.659-1.329-4.272-9.089-2.92-11.692c0.208-0.4,0.469-0.781,0.587-1.216
					c0.163-0.604,0.034-1.243-0.05-1.864c-0.234-1.739-0.076-3.594,0.834-5.095c0.91-1.5,2.682-2.551,4.412-2.257
					c0.364-3.761,4.175-6.828,7.927-6.377c1.612-3.012,6.326-3.695,8.726-1.264c1.326-0.958,2.706-1.94,4.309-2.267
					c1.603-0.327,3.5,0.187,4.285,1.622c0.117-0.887,1.116-1.441,2.009-1.379c0.893,0.062,1.686,0.57,2.419,1.084
					c1.864,1.309,3.813,3.199,3.498,5.455c1.362-0.032,2.632,0.868,3.31,2.049c0.679,1.181,0.839,2.598,0.749,3.957
					c-0.044,0.657-0.134,1.357,0.171,1.942c0.208,0.4,0.577,0.69,0.834,1.061c1.117,1.61-0.241,3.752-1.609,5.155
					c-1.177,1.207-18.78,8.432-23.017,5.949C213.113,134.396,207.297,142.483,203.567,138.719z"/>
			</g>
			<g>
				<path style="fill:#F2986B;" d="M220.581,153.663c-0.273,0.334-0.376,0.665-0.558,1.054c-0.176,0.377-0.319,0.663-0.372,1.081
					c-0.032,0.246,0.268,0.337,0.445,0.255c0.76-0.351,1.23-1.452,1.028-2.247C221.068,153.585,220.738,153.471,220.581,153.663
					L220.581,153.663z"/>
			</g>
			<g>
				<path style="fill:#F2986B;" d="M220.4,154.908c0.283,0.81,1.396,1.467,2.167,1.745c0.953,0.345,2.092,0.427,3.007-0.044
					c0.174-0.09,0.183-0.385,0-0.472c-0.808-0.387-1.688-0.301-2.537-0.549c-0.82-0.24-1.549-1.021-2.415-0.969
					C220.483,154.626,220.348,154.759,220.4,154.908L220.4,154.908z"/>
			</g>
			<g>
				<path style="fill:#E8391C;" d="M210.174,168.099c0.872,10.205,20.123,14.054,20.651,1.832c0.018-0.404-0.649-0.509-0.719-0.097
					c-0.87,5.145-4.77,7.408-9.801,6.473c-4.119-0.765-8.776-3.677-9.228-8.208C211.019,167.529,210.124,167.517,210.174,168.099
					L210.174,168.099z"/>
			</g>
			<g>
				<path style="fill:#E8391C;" d="M211.906,215.298c1.546,0.743,3.47,1.286,3.915-0.765c0.015-0.07-0.077-0.175-0.062-0.227
					c0.225-0.285,0.45-0.57,0.675-0.855c0.122,0.011,0.245,0.021,0.367,0.032c0.383-0.083,0.718,0.011,1.097-0.163
					c0.622-0.286,0.98-0.892,0.816-1.558c-0.067-0.272-0.412-0.273-0.554-0.072c-0.668,0.942-1.194,0.702-2.21,0.875
					c-0.452,0.077-0.893,0.26-1.141,0.671c-0.286,0.473,0.014,0.654,0.004,1.129c-0.028,1.212-2.027,0.497-2.778,0.458
					C211.789,214.811,211.678,215.189,211.906,215.298L211.906,215.298z"/>
			</g>
			<path style="fill:#FF6840;" d="M199.315,143.148c0,0,13.525-15.224,38.982-18.551c0,0,1.421-15.345-9.155-21.434
				c-10.575-6.089-28.682,2.884-34.611,8.012C188.603,116.302,184.23,135.544,199.315,143.148z"/>
			<path style="fill:#E8391C;" d="M213.323,132.704c0,0,18.537-21.77,38.373-20.742c19.836,1.029-13.399,12.635-13.399,12.635
				S223.21,128.505,213.323,132.704z"/>
			<polygon style="fill:#FFFFFF;" points="232.826,190.221 243.198,188.497 243.731,192.315 232.826,194.508 			"/>
			<g>
				<path style="fill:#E8391C;" d="M232.009,195.046c4.242-0.896,8.737-1.473,12.9-2.644c0.284-0.08,0.24-0.551-0.072-0.53
					c-4.215,0.284-9.01,1.21-12.964,2.682C231.568,194.668,231.684,195.115,232.009,195.046L232.009,195.046z"/>
			</g>
			<path style="fill:#E8391C;" d="M204.359,103.843c-3.871,1.34-4.718,6.487,0,3.981
				C209.078,105.317,212.026,101.189,204.359,103.843z"/>
			<g>
				<path style="fill:#E8391C;" d="M196.285,140.813c0.009,0,0.009-0.015,0-0.015C196.275,140.798,196.275,140.813,196.285,140.813
					L196.285,140.813z"/>
			</g>
			<g>
				<path style="fill:#E8391C;" d="M196.525,141.05c4.802-4.149,9.107-8.771,14.502-12.215c4.953-3.162,10.494-4.776,15.709-7.355
					c0.284-0.14,0.083-0.575-0.211-0.5c-11.787,3.006-22.2,10.951-30.491,19.579C195.72,140.884,196.189,141.34,196.525,141.05
					L196.525,141.05z"/>
			</g>
			<g>
				<path style="fill:#E8391C;" d="M202.735,107.359c-2.831,3.522-2.71,10.145-2.238,14.38c0.439,3.937,1.479,8.397,4.455,11.234
					c0.25,0.238,0.642-0.063,0.476-0.367c-1.065-1.954-2.306-3.631-2.987-5.793c-0.61-1.936-0.942-3.986-1.103-6.004
					c-0.172-2.162-0.085-4.343,0.165-6.496c0.273-2.35,1.125-4.556,1.403-6.883C202.915,107.347,202.787,107.294,202.735,107.359
					L202.735,107.359z"/>
			</g>
			<g>
				<path style="fill:#E8391C;" d="M206.77,105.198c6.746,4.457,11.383,10.792,16.131,17.192c0.114,0.154,0.332,0.026,0.255-0.149
					c-1.624-3.716-4.15-6.959-6.834-9.976c-2.645-2.972-5.624-5.856-9.187-7.692C206.72,104.358,206.38,104.941,206.77,105.198
					L206.77,105.198z"/>
			</g>
			<path style="fill:#FFFFFF;" d="M232.078,108.114c1.943,2.921,1.852,6.398-0.204,7.766c-2.056,1.368-5.298,0.108-7.242-2.813
				c-1.943-2.921-1.852-6.398,0.204-7.766C226.892,103.934,230.134,105.193,232.078,108.114z"/>
			<g>
				<path style="fill:#E8391C;" d="M200.082,255.64c5.534,2.974,12.452,4.434,18.604,5.248c9.214,1.218,19.157,0.56,26.832-5.19
					c0.281-0.211,0.011-0.69-0.28-0.479c-7.941,5.775-18.209,6.206-27.605,4.874c-5.74-0.814-12.141-2.099-17.339-4.816
					C200.054,255.151,199.842,255.511,200.082,255.64L200.082,255.64z"/>
			</g>
			<g>
				<path style="fill:#E8391C;" d="M195.193,202.839c1.57,8.883,2.76,17.844,4.101,26.764c1.363,9.067,2.92,18.14,3.964,27.251
					c0.038,0.333,0.561,0.345,0.532,0c-0.523-6.31-1.607-12.598-2.519-18.86c-1.296-8.903-2.673-17.793-4.14-26.669
					c-0.473-2.859-0.922-5.758-1.618-8.574C195.462,202.54,195.157,202.632,195.193,202.839L195.193,202.839z"/>
			</g>
			<g>
				<path style="fill:#E8391C;" d="M210.532,168.641c-7.785,4.048-18.475,10.559-18.017,20.621c0.014,0.317,0.46,0.31,0.488,0
					c0.481-5.399,3.051-9.415,7.2-12.815c3.349-2.745,7.402-4.547,10.691-7.335C211.165,168.882,210.821,168.49,210.532,168.641
					L210.532,168.641z"/>
			</g>
			<path style="fill:#1D2C49;" d="M220.684,141.138c0,1.451-0.543,2.628-1.212,2.628c-0.67,0-1.212-1.176-1.212-2.628
				c0-1.451,0.543-2.628,1.212-2.628C220.141,138.51,220.684,139.687,220.684,141.138z"/>
			<path style="fill:#1D2C49;" d="M231.884,140.164c0,1.451-0.543,2.628-1.212,2.628s-1.212-1.176-1.212-2.628
				c0-1.451,0.543-2.628,1.212-2.628S231.884,138.713,231.884,140.164z"/>
			<path style="fill:#FFC299;" d="M222.783,209.006c0,0,14.612,19.674,17.491,20.865c2.878,1.191,40.505,1.371,43.58,2.457
				c3.075,1.085,9.295,9.4,6.818,11.303c-2.477,1.902-11.521,3.162-12.426,0c-0.904-3.163-2.761-4.429-5.722-2.982
				s-34.466,2.986-39.878,0.136c-5.412-2.85-24.876-26.394-24.876-26.394L222.783,209.006z"/>
			<path style="fill:#FF6840;" d="M205.151,211.843l6.884,10.766c0,0,8.855-1.858,14.283-10.766l-6.206-10.767L205.151,211.843z"/>
			<g>
				<path style="fill:#E8391C;" d="M193.748,198.977c2.206,4.157,5.424,7.776,8.428,11.368c3.178,3.8,6.133,7.862,9.482,11.506
					c0.154,0.168,0.411-0.046,0.308-0.238c-2.236-4.122-5.544-7.712-8.538-11.293c-3.182-3.806-6.117-7.845-9.395-11.564
					C193.892,198.598,193.655,198.801,193.748,198.977L193.748,198.977z"/>
			</g>
			<g>
				<path style="fill:#E8391C;" d="M213.08,191.512c1.135,3.609,3.714,7.024,5.867,10.106c2.213,3.169,4.381,6.547,6.864,9.498
					c0.08,0.096,0.21-0.026,0.163-0.125c-1.643-3.458-4.209-6.601-6.368-9.758c-2.187-3.197-3.864-6.765-6.08-9.91
					C213.376,191.111,212.992,191.231,213.08,191.512L213.08,191.512z"/>
			</g>
			<g>
				<path style="fill:#E8391C;" d="M212.26,222.546c3.065-0.205,6.264-2.38,8.618-4.185c2.123-1.628,5.184-3.999,5.845-6.727
					c0.014-0.059-0.053-0.121-0.109-0.083c-2.26,1.539-3.77,4.171-5.949,5.91c-2.627,2.098-5.715,3.066-8.464,4.873
					C212.113,222.391,212.139,222.554,212.26,222.546L212.26,222.546z"/>
			</g>
			<g>
				<path style="fill:#F2986B;" d="M261.979,221.791c-0.641-0.028-1.37,0.697-1.729,1.178c-0.361,0.484-0.818,1.257-0.63,1.881
					c0.042,0.139,0.186,0.185,0.31,0.126c0.511-0.243,0.893-0.888,1.253-1.307c0.356-0.414,0.986-0.899,1.139-1.429
					C262.387,222.01,262.205,221.801,261.979,221.791L261.979,221.791z"/>
			</g>
			<g>
				<path style="fill:#F2986B;" d="M239.215,229.75c-0.822,0.529-1.157,1.686-1.032,2.608c0.031,0.229,0.349,0.216,0.453,0.059
					c0.227-0.343,0.469-0.704,0.631-1.081c0.165-0.383,0.434-0.729,0.541-1.131C239.894,229.878,239.518,229.556,239.215,229.75
					L239.215,229.75z"/>
			</g>
			<path style="fill:#1D2C49;" d="M251.285,328.13l-5.034,23.728l32.697,0.726c0,0,1.548-6.708-4.03-9.863
				c-5.578-3.155-13.536-0.487-11.636-12.003L251.285,328.13z"/>
			<g>
				<path style="fill:#F2986B;" d="M254.886,231.222c4.697,0.168,9.394,0.404,14.09,0.608c4.642,0.201,9.462,0.006,14.077,0.565
					c0.263,0.032,0.325-0.419,0.063-0.465c-4.494-0.784-9.339-0.588-13.883-0.756c-4.781-0.176-9.564-0.38-14.347-0.47
					C254.552,230.698,254.554,231.21,254.886,231.222L254.886,231.222z"/>
			</g>
			<path style="fill:#1D2C49;" d="M278.081,281.676c4.347,12.222,8.474,51.157,8.474,51.157s-4.067,3.441-11.771,1.834
				l-11.501-41.713l3.117-15.861L278.081,281.676z"/>
			<path style="fill:#0E1A2D;" d="M250.066,326.829l-1.044,5.886c0,0,9.399,1.899,15.38,0l0.949-4.937
				C265.351,327.779,256.426,328.728,250.066,326.829z"/>
			<path style="fill:#0E1A2D;" d="M272.757,330.536l1.522,5.408c0,0,9.016,1.366,14.139-3.142l-1.864-4.671
				C286.554,328.13,280.612,331.309,272.757,330.536z"/>
			<g>
				<path style="fill:#0E1A2D;" d="M247.037,269.018c6.661,3.546,14.057,5.933,20.11,10.569c4.202,3.218,5.074,9.102,5.27,14.072
					c0.278,7.052-1.012,14.076-3.099,20.79c-0.143,0.46,0.577,0.656,0.72,0.198c2.178-6.954,3.623-14.43,3.173-21.748
					c-0.27-4.396-1.126-9.873-4.543-13.021c-3.232-2.977-7.58-4.949-11.48-6.87c-3.236-1.594-6.535-3.291-9.971-4.416
					C246.966,268.51,246.804,268.894,247.037,269.018L247.037,269.018z"/>
			</g>
			<path style="fill:#0E1A2D;" d="M246.251,351.859l-0.116,0.442c-0.253,0.966,0.463,1.915,1.461,1.938l29.989,0.678
				c0.833,0.019,1.499-0.689,1.43-1.519l-0.068-0.814L246.251,351.859z"/>
			<g>
				<path style="fill:#0E1A2D;" d="M275.728,343.588c0.813,1.337,1.616,2.534,2.072,4.06c0.405,1.353,0.557,2.758,0.906,4.123
					c0.093,0.362,0.628,0.276,0.639-0.086c0.083-2.79-0.992-6.558-3.17-8.441C275.941,343.041,275.551,343.297,275.728,343.588
					L275.728,343.588z"/>
			</g>
			<g>
				<path style="fill:#0E1A2D;" d="M208.642,262.436c-0.459,2.463-0.53,4.761-1.661,7.067c-1.108,2.259-2.819,3.948-4.678,5.593
					c-0.305,0.27,0.084,0.727,0.421,0.546c4.138-2.22,7.68-8.481,6.175-13.207C208.862,262.32,208.668,262.299,208.642,262.436
					L208.642,262.436z"/>
			</g>
			<g>
				<path style="fill:#FFFFFF;" d="M328.927,221.385c2.452,1.359,4.06,3.048,3.947,6.022c-0.005,0.121,0.167,0.134,0.203,0.027
					c0.864-2.54-1.151-6.388-4.093-6.263C328.876,221.176,328.824,221.327,328.927,221.385L328.927,221.385z"/>
			</g>
			<g>
				<path style="fill:#1D2C49;" d="M199.165,257.394c-0.795,6.579-4.421,25.814,2.84,25.814s54.073-0.539,54.32,7.787
					c0.247,8.326-5.505,39.724-5.505,39.724s7.21,2.43,12.461,0c0,0,15.616-37.015,15.085-47.495
					c-0.532-10.48-32.2-26.461-32.2-26.461L199.165,257.394z"/>
				<g>
					<path style="fill:#0E1A2D;" d="M202.177,261.221c-2.139,6.398-3.173,15.748,5.29,17.717c4.489,1.044,9.426,0.977,14.01,1.22
						c5.051,0.268,10.113,0.382,15.172,0.369c5.083-0.012,10.877-1.001,15.821,0.39c6.187,1.74,7.429,7.331,6.556,13.022
						c-0.793,5.167-1.971,10.284-2.86,15.436c-0.908,5.264-2.335,10.798-2.319,16.167c0.001,0.229,0.38,0.298,0.414,0.056
						c1.305-9.368,2.876-18.768,4.668-28.054c0.741-3.842,1.842-7.876,0.38-11.699c-1.125-2.943-3.679-4.801-6.641-5.648
						c-4.488-1.284-9.464-0.55-14.061-0.483c-5.059,0.074-10.118,0.001-15.174-0.206c-2.935-0.12-5.868-0.275-8.797-0.496
						c-2.955-0.223-6.446-0.079-9.157-1.438c-6.147-3.08-4.231-11.003-2.917-16.248
						C202.625,261.077,202.259,260.978,202.177,261.221L202.177,261.221z"/>
				</g>
			</g>
			<path style="fill:#B6F0FF;" d="M215.931,147.085c0,0,12.627,2.201,20.656-2.048c0,0,8.711,27.575-22.413,14.918
				C214.174,159.955,217.66,152.745,215.931,147.085z"/>
			<g>
				<path style="fill:#B6F0FF;" d="M217.147,148.639c-4.313-3.605-12.17-4.999-12.249-5.013l1.362-0.823
					c0.333,0.062,7.012,1.294,11.529,5.068L217.147,148.639z"/>
			</g>
			<path style="fill:none;stroke:#B6F0FF;stroke-miterlimit:10;" d="M209.787,152c0,0,2.117,7.67,7.011,8.436"/>
			<path id="XMLID_58_" style="fill:#FFC299;" d="M204.301,150.884c1.856,2.6,4.702,3.749,6.357,2.566
				c0.163-0.117,0.309-0.251,0.437-0.402c1.169-1.38,0.872-4.102-0.801-6.445c-1.856-2.6-4.702-3.749-6.357-2.566
				C202.282,145.218,202.445,148.284,204.301,150.884z"/>
			<g style="opacity:0.5;">
				<path style="fill:#FFFFFF;" d="M222.388,150.725c2.273,0.417,4.581,0.609,6.828,0.452c1.126-0.087,2.218-0.314,3.295-0.601
					c1.079-0.301,2.078-0.78,3.119-1.306l0.015-0.007c0.107-0.054,0.238-0.011,0.292,0.096c0.042,0.084,0.025,0.183-0.036,0.247
					c-0.83,0.88-1.878,1.584-3.025,2.033c-1.148,0.441-2.368,0.667-3.581,0.738c-1.214,0.059-2.425-0.026-3.607-0.23
					c-1.182-0.214-2.334-0.531-3.439-1.016c-0.109-0.048-0.158-0.174-0.11-0.283c0.041-0.093,0.14-0.143,0.235-0.125
					L222.388,150.725z"/>
			</g>
			<g style="opacity:0.5;">
				<path style="fill:#FFFFFF;" d="M222.388,157.568c2.273,0.417,4.581,0.609,6.828,0.452c1.126-0.087,2.218-0.314,3.295-0.6
					c1.079-0.301,2.078-0.78,3.119-1.306l0.015-0.007c0.107-0.054,0.238-0.011,0.292,0.096c0.042,0.084,0.025,0.183-0.036,0.248
					c-0.83,0.88-1.878,1.584-3.025,2.033c-1.148,0.441-2.368,0.667-3.581,0.738c-1.214,0.059-2.425-0.026-3.607-0.23
					c-1.182-0.215-2.334-0.531-3.439-1.016c-0.109-0.048-0.158-0.174-0.11-0.283c0.041-0.093,0.14-0.143,0.235-0.125
					L222.388,157.568z"/>
			</g>
			<g style="opacity:0.5;">
				<path style="fill:#FFFFFF;" d="M224.26,154.116c1.649,0.227,3.301,0.336,4.896,0.215c0.8-0.065,1.571-0.229,2.338-0.414
					c0.769-0.197,1.483-0.511,2.264-0.841l0.017-0.007c0.112-0.047,0.241,0.005,0.288,0.117c0.033,0.078,0.017,0.165-0.034,0.226
					c-0.57,0.684-1.332,1.224-2.169,1.568c-0.839,0.34-1.737,0.503-2.624,0.551c-1.778,0.07-3.531-0.255-5.114-1.01
					c-0.107-0.051-0.153-0.18-0.102-0.287c0.041-0.087,0.133-0.133,0.224-0.121L224.26,154.116z"/>
			</g>
			<g>
				<path style="fill:#B6F0FF;" d="M283.854,232.328c-1.068-0.377-6.311-0.645-12.815-0.884c-1.968,3.913-0.598,7.565,0.36,9.527
					c0.512-0.107,0.906-0.214,1.125-0.322c2.961-1.447,4.818-0.181,5.722,2.982c0.904,3.162,9.949,1.902,12.426,0
					C293.148,241.728,286.929,233.413,283.854,232.328z"/>
			</g>
		</g>
	</g>
</g>
</svg>
